<svg xmlns="http://www.w3.org/2000/svg" xmlns:xlink="http://www.w3.org/1999/xlink" width="500" zoomAndPan="magnify" viewBox="0 0 375 149.999998" height="200" preserveAspectRatio="xMidYMid meet" version="1.0"><defs><g/><clipPath id="ef1d06d86b"><path d="M 68.890625 1.90625 L 351.542969 1.90625 L 351.542969 124.074219 L 68.890625 124.074219 Z M 68.890625 1.90625 " clip-rule="nonzero"/></clipPath><clipPath id="da26a2e239"><path d="M 66.121094 58 L 112 58 L 112 121 L 66.121094 121 Z M 66.121094 58 " clip-rule="nonzero"/></clipPath><clipPath id="981c225549"><path d="M 66.121094 68 L 71 68 L 71 121 L 66.121094 121 Z M 66.121094 68 " clip-rule="nonzero"/></clipPath><clipPath id="294ee739f6"><path d="M 66.121094 7 L 122 7 L 122 64 L 66.121094 64 Z M 66.121094 7 " clip-rule="nonzero"/></clipPath><clipPath id="fa59715145"><path d="M 66.121094 7 L 71 7 L 71 17 L 66.121094 17 Z M 66.121094 7 " clip-rule="nonzero"/></clipPath><clipPath id="0c151704cd"><path d="M 66.121094 58 L 71 58 L 71 64 L 66.121094 64 Z M 66.121094 58 " clip-rule="nonzero"/></clipPath><clipPath id="7b1e5d1849"><path d="M 66.121094 2 L 71 2 L 71 125.464844 L 66.121094 125.464844 Z M 66.121094 2 " clip-rule="nonzero"/></clipPath><clipPath id="7b4bac4d1f"><path d="M 66 57 L 66.402344 57 L 66.402344 119 L 66 119 Z M 66 57 " clip-rule="nonzero"/></clipPath><clipPath id="b6cd7a6206"><path d="M 25 67 L 66.402344 67 L 66.402344 119 L 25 119 Z M 25 67 " clip-rule="nonzero"/></clipPath><clipPath id="1ef2a73c1b"><path d="M 66 6 L 66.402344 6 L 66.402344 63 L 66 63 Z M 66 6 " clip-rule="nonzero"/></clipPath><clipPath id="2ae2c3e209"><path d="M 62 6 L 66.402344 6 L 66.402344 15 L 62 15 Z M 62 6 " clip-rule="nonzero"/></clipPath><clipPath id="47689d005c"><path d="M 15.394531 53 L 26 53 L 26 63 L 15.394531 63 Z M 15.394531 53 " clip-rule="nonzero"/></clipPath><clipPath id="12a0fb1332"><path d="M 61 57 L 66.402344 57 L 66.402344 63 L 61 63 Z M 61 57 " clip-rule="nonzero"/></clipPath><clipPath id="6e2f9a492c"><path d="M 66 1.90625 L 66.402344 1.90625 L 66.402344 124 L 66 124 Z M 66 1.90625 " clip-rule="nonzero"/></clipPath></defs><rect x="-37.5" width="450" fill="#ffffff" y="-15" height="179.999997" fill-opacity="1"/><rect x="-37.5" width="450" fill="#ffffff" y="-15" height="179.999997" fill-opacity="1"/><rect x="-37.5" width="450" fill="#ffffff" y="-15" height="179.999997" fill-opacity="1"/><g clip-path="url(#ef1d06d86b)"><path fill="#000000" d="M 68.890625 1.90625 L 351.375 1.90625 L 351.375 124.445312 L 68.890625 124.445312 Z M 68.890625 1.90625 " fill-opacity="1" fill-rule="nonzero"/></g><g fill="#ffffff" fill-opacity="1"><g transform="translate(145.917607, 114.481858)"><g><path d="M 25.652344 -44.097656 C 32.339844 -44.097656 39.199219 -40.992188 36.578125 -32.777344 L 27.792969 -8.257812 L 28.363281 -8.257812 L 41.429688 -44.578125 L 40.992188 -44.578125 C 40.335938 -43.703125 39.289062 -42.742188 37.539062 -42.742188 C 33.738281 -42.742188 30.679688 -44.578125 24.824219 -44.578125 C 10.707031 -44.578125 2.621094 -34.394531 2.621094 -21.851562 C 2.621094 -9.308594 10.707031 0.875 24.824219 0.875 C 38.9375 0.875 47.023438 -9.308594 47.023438 -21.851562 L 46.5 -21.851562 C 46.5 -9.175781 37.933594 0.304688 25.609375 0.304688 C -0.394531 0.304688 -0.960938 -44.097656 25.652344 -44.097656 Z M 25.652344 -44.097656 "/></g></g></g><g fill="#ffffff" fill-opacity="1"><g transform="translate(197.266663, 114.481858)"><g><path d="M 1.3125 -43.179688 L 3.101562 -43.179688 C 5.726562 -43.179688 7.078125 -40.6875 7.953125 -38.984375 C 8.742188 -37.453125 19.929688 -4.851562 21.9375 0.875 L 22.464844 0.875 C 24.472656 -4.851562 35.660156 -37.453125 36.449219 -38.984375 C 37.320312 -40.6875 38.675781 -43.179688 41.296875 -43.179688 L 43.089844 -43.179688 L 43.089844 -43.703125 L 28.710938 -43.703125 L 28.710938 -43.179688 L 30.984375 -43.179688 C 32.644531 -43.179688 34.4375 -42.304688 34.4375 -39.855469 C 34.4375 -36.097656 31.246094 -26.527344 28.230469 -17.917969 C 26.351562 -12.5 24.515625 -7.472656 23.554688 -4.632812 L 23.730469 -4.109375 C 23.730469 -4.109375 10.792969 -39.898438 10.792969 -42.042969 C 10.792969 -43.179688 11.667969 -43.179688 12.457031 -43.179688 L 14.726562 -43.179688 L 14.726562 -43.703125 L 1.3125 -43.703125 Z M 1.3125 -43.179688 "/></g></g></g><g fill="#ffffff" fill-opacity="1"><g transform="translate(244.682628, 114.481858)"><g><path d="M 1.3125 -0.523438 L 1.3125 0 L 16.214844 0 L 16.214844 -0.480469 L 14.289062 -0.480469 C 10.792969 -0.480469 10.09375 -2.972656 10.09375 -6.207031 C 10.09375 -12.5 12.28125 -27.621094 14.464844 -40.773438 C 14.597656 -40.382812 14.683594 -39.988281 14.816406 -39.59375 C 20.148438 -23.644531 21.894531 -13.984375 25.960938 0.875 L 26.484375 0.875 C 30.285156 -12.71875 33.957031 -26.964844 37.671875 -40.863281 C 39.769531 -27.925781 43.265625 -8.960938 43.265625 -4.851562 C 43.265625 -2.273438 41.386719 -0.480469 37.890625 -0.480469 L 35.96875 -0.480469 L 35.96875 0 L 53.011719 0 L 53.011719 -0.523438 L 50.957031 -0.523438 C 46.410156 -0.523438 45.101562 -11.058594 43.441406 -21.851562 C 42.214844 -29.9375 40.25 -39.898438 40.25 -42.128906 C 40.25 -42.871094 40.597656 -43.179688 41.429688 -43.179688 L 45.496094 -43.179688 L 45.496094 -43.703125 L 37.847656 -43.703125 C 37.800781 -43.527344 37.757812 -43.351562 37.714844 -43.179688 C 33.738281 -27.183594 31.464844 -19.839844 27.621094 -5.070312 C 23.46875 -20.101562 21.5 -27.140625 17.085938 -43.179688 C 17.042969 -43.351562 17 -43.527344 16.957031 -43.703125 L 8.828125 -43.703125 L 8.828125 -43.179688 L 12.191406 -43.179688 C 13.109375 -43.179688 14.027344 -42.742188 14.027344 -41.953125 C 14.027344 -39.070312 12.105469 -29.804688 10.882812 -21.851562 C 9.222656 -11.058594 7.910156 -0.523438 3.363281 -0.523438 Z M 1.3125 -0.523438 "/></g></g></g><g fill="#000000" fill-opacity="1"><g transform="translate(55.683596, 145.301122)"><g><path d="M 14.03125 0 L 10.390625 -5.203125 C 10.234375 -5.191406 10.003906 -5.1875 9.703125 -5.1875 L 5.6875 -5.1875 L 5.6875 0 L 2.390625 0 L 2.390625 -17.78125 L 9.703125 -17.78125 C 11.242188 -17.78125 12.585938 -17.523438 13.734375 -17.015625 C 14.878906 -16.515625 15.753906 -15.789062 16.359375 -14.84375 C 16.972656 -13.894531 17.28125 -12.765625 17.28125 -11.453125 C 17.28125 -10.117188 16.953125 -8.96875 16.296875 -8 C 15.640625 -7.039062 14.703125 -6.320312 13.484375 -5.84375 L 17.578125 0 Z M 13.953125 -11.453125 C 13.953125 -12.585938 13.578125 -13.457031 12.828125 -14.0625 C 12.085938 -14.675781 10.992188 -14.984375 9.546875 -14.984375 L 5.6875 -14.984375 L 5.6875 -7.90625 L 9.546875 -7.90625 C 10.992188 -7.90625 12.085938 -8.210938 12.828125 -8.828125 C 13.578125 -9.441406 13.953125 -10.316406 13.953125 -11.453125 Z M 13.953125 -11.453125 "/></g></g></g><g fill="#000000" fill-opacity="1"><g transform="translate(83.275774, 145.301122)"><g><path d="M 15.71875 -2.765625 L 15.71875 0 L 2.390625 0 L 2.390625 -17.78125 L 15.375 -17.78125 L 15.375 -15.015625 L 5.6875 -15.015625 L 5.6875 -10.390625 L 14.28125 -10.390625 L 14.28125 -7.671875 L 5.6875 -7.671875 L 5.6875 -2.765625 Z M 15.71875 -2.765625 "/></g></g></g><g fill="#000000" fill-opacity="1"><g transform="translate(109.318199, 145.301122)"><g><path d="M 18.1875 -17.78125 L 18.1875 0 L 15.46875 0 L 5.671875 -12.046875 L 5.671875 0 L 2.390625 0 L 2.390625 -17.78125 L 5.109375 -17.78125 L 14.90625 -5.734375 L 14.90625 -17.78125 Z M 18.1875 -17.78125 "/></g></g></g><g fill="#000000" fill-opacity="1"><g transform="translate(138.91744, 145.301122)"><g><path d="M 10.703125 0.25 C 8.890625 0.25 7.253906 -0.140625 5.796875 -0.921875 C 4.335938 -1.710938 3.191406 -2.804688 2.359375 -4.203125 C 1.535156 -5.597656 1.125 -7.160156 1.125 -8.890625 C 1.125 -10.617188 1.535156 -12.179688 2.359375 -13.578125 C 3.191406 -14.972656 4.335938 -16.0625 5.796875 -16.84375 C 7.253906 -17.632812 8.890625 -18.03125 10.703125 -18.03125 C 12.515625 -18.03125 14.144531 -17.632812 15.59375 -16.84375 C 17.050781 -16.0625 18.195312 -14.976562 19.03125 -13.59375 C 19.863281 -12.207031 20.28125 -10.640625 20.28125 -8.890625 C 20.28125 -7.148438 19.863281 -5.582031 19.03125 -4.1875 C 18.195312 -2.800781 17.050781 -1.710938 15.59375 -0.921875 C 14.144531 -0.140625 12.515625 0.25 10.703125 0.25 Z M 10.703125 -2.640625 C 11.878906 -2.640625 12.941406 -2.90625 13.890625 -3.4375 C 14.835938 -3.976562 15.582031 -4.722656 16.125 -5.671875 C 16.675781 -6.628906 16.953125 -7.703125 16.953125 -8.890625 C 16.953125 -10.078125 16.675781 -11.148438 16.125 -12.109375 C 15.582031 -13.066406 14.835938 -13.8125 13.890625 -14.34375 C 12.941406 -14.875 11.878906 -15.140625 10.703125 -15.140625 C 9.515625 -15.140625 8.445312 -14.875 7.5 -14.34375 C 6.550781 -13.8125 5.804688 -13.066406 5.265625 -12.109375 C 4.722656 -11.148438 4.453125 -10.078125 4.453125 -8.890625 C 4.453125 -7.703125 4.722656 -6.628906 5.265625 -5.671875 C 5.804688 -4.722656 6.550781 -3.976562 7.5 -3.4375 C 8.445312 -2.90625 9.515625 -2.640625 10.703125 -2.640625 Z M 10.703125 -2.640625 "/></g></g></g><g fill="#000000" fill-opacity="1"><g transform="translate(169.32967, 145.301122)"><g><path d="M 18.640625 -17.78125 L 10.90625 0 L 7.640625 0 L -0.125 -17.78125 L 3.453125 -17.78125 L 9.375 -4.0625 L 15.34375 -17.78125 Z M 18.640625 -17.78125 "/></g></g></g><g fill="#000000" fill-opacity="1"><g transform="translate(196.871034, 145.301122)"><g><path d="M 13.921875 -4.109375 L 5.03125 -4.109375 L 3.28125 0 L -0.125 0 L 7.875 -17.78125 L 11.125 -17.78125 L 19.15625 0 L 15.703125 0 Z M 12.828125 -6.703125 L 9.484375 -14.484375 L 6.140625 -6.703125 Z M 12.828125 -6.703125 "/></g></g></g><g fill="#000000" fill-opacity="1"><g transform="translate(224.920506, 145.301122)"><g><path d="M 6 -14.984375 L 0.109375 -14.984375 L 0.109375 -17.78125 L 15.1875 -17.78125 L 15.1875 -14.984375 L 9.296875 -14.984375 L 9.296875 0 L 6 0 Z M 6 -14.984375 "/></g></g></g><g fill="#000000" fill-opacity="1"><g transform="translate(249.235336, 145.301122)"><g><path d="M 2.390625 -17.78125 L 5.6875 -17.78125 L 5.6875 0 L 2.390625 0 Z M 2.390625 -17.78125 "/></g></g></g><g fill="#000000" fill-opacity="1"><g transform="translate(266.360298, 145.301122)"><g><path d="M 10.703125 0.25 C 8.890625 0.25 7.253906 -0.140625 5.796875 -0.921875 C 4.335938 -1.710938 3.191406 -2.804688 2.359375 -4.203125 C 1.535156 -5.597656 1.125 -7.160156 1.125 -8.890625 C 1.125 -10.617188 1.535156 -12.179688 2.359375 -13.578125 C 3.191406 -14.972656 4.335938 -16.0625 5.796875 -16.84375 C 7.253906 -17.632812 8.890625 -18.03125 10.703125 -18.03125 C 12.515625 -18.03125 14.144531 -17.632812 15.59375 -16.84375 C 17.050781 -16.0625 18.195312 -14.976562 19.03125 -13.59375 C 19.863281 -12.207031 20.28125 -10.640625 20.28125 -8.890625 C 20.28125 -7.148438 19.863281 -5.582031 19.03125 -4.1875 C 18.195312 -2.800781 17.050781 -1.710938 15.59375 -0.921875 C 14.144531 -0.140625 12.515625 0.25 10.703125 0.25 Z M 10.703125 -2.640625 C 11.878906 -2.640625 12.941406 -2.90625 13.890625 -3.4375 C 14.835938 -3.976562 15.582031 -4.722656 16.125 -5.671875 C 16.675781 -6.628906 16.953125 -7.703125 16.953125 -8.890625 C 16.953125 -10.078125 16.675781 -11.148438 16.125 -12.109375 C 15.582031 -13.066406 14.835938 -13.8125 13.890625 -14.34375 C 12.941406 -14.875 11.878906 -15.140625 10.703125 -15.140625 C 9.515625 -15.140625 8.445312 -14.875 7.5 -14.34375 C 6.550781 -13.8125 5.804688 -13.066406 5.265625 -12.109375 C 4.722656 -11.148438 4.453125 -10.078125 4.453125 -8.890625 C 4.453125 -7.703125 4.722656 -6.628906 5.265625 -5.671875 C 5.804688 -4.722656 6.550781 -3.976562 7.5 -3.4375 C 8.445312 -2.90625 9.515625 -2.640625 10.703125 -2.640625 Z M 10.703125 -2.640625 "/></g></g></g><g fill="#000000" fill-opacity="1"><g transform="translate(296.772521, 145.301122)"><g><path d="M 18.1875 -17.78125 L 18.1875 0 L 15.46875 0 L 5.671875 -12.046875 L 5.671875 0 L 2.390625 0 L 2.390625 -17.78125 L 5.109375 -17.78125 L 14.90625 -5.734375 L 14.90625 -17.78125 Z M 18.1875 -17.78125 "/></g></g></g><g clip-path="url(#da26a2e239)"><path fill="#ffffff" d="M 108.734375 120.042969 L 67.90625 120.042969 C 66.496094 120.042969 65.355469 118.894531 65.355469 117.480469 C 65.355469 116.066406 66.496094 114.921875 67.90625 114.921875 L 106.183594 114.921875 L 106.183594 61.125 C 106.183594 59.710938 107.324219 58.5625 108.734375 58.5625 C 110.144531 58.5625 111.285156 59.710938 111.285156 61.125 L 111.285156 117.480469 C 111.285156 118.894531 110.144531 120.042969 108.734375 120.042969 Z M 108.734375 120.042969 " fill-opacity="1" fill-rule="nonzero"/></g><g clip-path="url(#981c225549)"><path fill="#ffffff" d="M 67.90625 120.042969 L 62.800781 120.042969 C 61.394531 120.042969 60.25 118.894531 60.25 117.480469 C 60.25 116.066406 61.394531 114.921875 62.800781 114.921875 L 67.90625 114.921875 C 69.3125 114.921875 70.457031 116.066406 70.457031 117.480469 C 70.457031 118.894531 69.3125 120.042969 67.90625 120.042969 Z M 52.59375 120.042969 L 42.386719 120.042969 C 40.980469 120.042969 39.835938 118.894531 39.835938 117.480469 C 39.835938 116.066406 40.980469 114.921875 42.386719 114.921875 L 52.59375 114.921875 C 54.003906 114.921875 55.148438 116.066406 55.148438 117.480469 C 55.148438 118.894531 54.003906 120.042969 52.59375 120.042969 Z M 32.179688 120.042969 L 27.078125 120.042969 C 25.667969 120.042969 24.523438 118.894531 24.523438 117.480469 L 24.523438 112.359375 C 24.523438 110.945312 25.667969 109.796875 27.078125 109.796875 C 28.484375 109.796875 29.628906 110.945312 29.628906 112.359375 L 29.628906 114.921875 L 32.179688 114.921875 C 33.589844 114.921875 34.730469 116.066406 34.730469 117.480469 C 34.730469 118.894531 33.589844 120.042969 32.179688 120.042969 Z M 27.078125 104.671875 C 25.667969 104.671875 24.523438 103.527344 24.523438 102.113281 L 24.523438 91.863281 C 24.523438 90.449219 25.667969 89.304688 27.078125 89.304688 C 28.484375 89.304688 29.628906 90.449219 29.628906 91.863281 L 29.628906 102.113281 C 29.628906 103.527344 28.484375 104.671875 27.078125 104.671875 Z M 27.078125 84.179688 C 25.667969 84.179688 24.523438 83.03125 24.523438 81.617188 L 24.523438 71.371094 C 24.523438 69.957031 25.667969 68.808594 27.078125 68.808594 C 28.484375 68.808594 29.628906 69.957031 29.628906 71.371094 L 29.628906 81.617188 C 29.628906 83.03125 28.484375 84.179688 27.078125 84.179688 Z M 27.078125 84.179688 " fill-opacity="1" fill-rule="nonzero"/></g><g clip-path="url(#294ee739f6)"><path fill="#ffffff" d="M 118.941406 63.6875 L 67.90625 63.6875 C 66.496094 63.6875 65.355469 62.539062 65.355469 61.125 C 65.355469 59.710938 66.496094 58.5625 67.90625 58.5625 L 112.78125 58.5625 L 66.105469 11.703125 C 65.109375 10.703125 65.109375 9.078125 66.105469 8.082031 C 67.097656 7.082031 68.71875 7.082031 69.710938 8.082031 L 120.75 59.316406 C 121.476562 60.046875 121.699219 61.148438 121.300781 62.109375 C 120.902344 63.066406 119.972656 63.6875 118.941406 63.6875 Z M 118.941406 63.6875 " fill-opacity="1" fill-rule="nonzero"/></g><g clip-path="url(#fa59715145)"><path fill="#ffffff" d="M 64.296875 16.074219 C 63.644531 16.074219 62.992188 15.824219 62.492188 15.324219 C 61.496094 14.328125 61.496094 12.703125 62.492188 11.703125 L 66.097656 8.082031 C 67.09375 7.082031 68.710938 7.082031 69.707031 8.082031 C 70.703125 9.078125 70.703125 10.703125 69.707031 11.703125 L 66.097656 15.324219 C 65.605469 15.824219 64.949219 16.074219 64.296875 16.074219 Z M 64.296875 16.074219 " fill-opacity="1" fill-rule="nonzero"/></g><g clip-path="url(#0c151704cd)"><path fill="#ffffff" d="M 67.90625 63.6875 L 62.800781 63.6875 C 61.394531 63.6875 60.25 62.539062 60.25 61.125 C 60.25 59.710938 61.394531 58.5625 62.800781 58.5625 L 67.90625 58.5625 C 69.3125 58.5625 70.457031 59.710938 70.457031 61.125 C 70.457031 62.539062 69.3125 63.6875 67.90625 63.6875 Z M 67.90625 63.6875 " fill-opacity="1" fill-rule="nonzero"/></g><g clip-path="url(#7b1e5d1849)"><path fill="#ffffff" d="M 67.90625 125.167969 C 66.496094 125.167969 65.355469 124.019531 65.355469 122.605469 L 65.355469 4.765625 C 65.355469 3.351562 66.496094 2.203125 67.90625 2.203125 C 69.3125 2.203125 70.457031 3.351562 70.457031 4.765625 L 70.457031 122.605469 C 70.457031 124.019531 69.3125 125.167969 67.90625 125.167969 Z M 67.90625 125.167969 " fill-opacity="1" fill-rule="nonzero"/></g><g clip-path="url(#7b4bac4d1f)"><path fill="#000000" d="M 109.808594 118.808594 L 68.980469 118.808594 C 67.574219 118.808594 66.429688 117.660156 66.429688 116.246094 C 66.429688 114.832031 67.574219 113.6875 68.980469 113.6875 L 107.257812 113.6875 L 107.257812 59.890625 C 107.257812 58.476562 108.402344 57.328125 109.808594 57.328125 C 111.21875 57.328125 112.363281 58.476562 112.363281 59.890625 L 112.363281 116.246094 C 112.363281 117.660156 111.21875 118.808594 109.808594 118.808594 Z M 109.808594 118.808594 " fill-opacity="1" fill-rule="nonzero"/></g><g clip-path="url(#b6cd7a6206)"><path fill="#000000" d="M 68.980469 118.808594 L 63.878906 118.808594 C 62.46875 118.808594 61.324219 117.660156 61.324219 116.246094 C 61.324219 114.832031 62.46875 113.6875 63.878906 113.6875 L 68.980469 113.6875 C 70.390625 113.6875 71.53125 114.832031 71.53125 116.246094 C 71.53125 117.660156 70.390625 118.808594 68.980469 118.808594 Z M 53.671875 118.808594 L 43.464844 118.808594 C 42.054688 118.808594 40.910156 117.660156 40.910156 116.246094 C 40.910156 114.832031 42.054688 113.6875 43.464844 113.6875 L 53.671875 113.6875 C 55.078125 113.6875 56.222656 114.832031 56.222656 116.246094 C 56.222656 117.660156 55.078125 118.808594 53.671875 118.808594 Z M 33.253906 118.808594 L 28.152344 118.808594 C 26.742188 118.808594 25.601562 117.660156 25.601562 116.246094 L 25.601562 111.125 C 25.601562 109.710938 26.742188 108.5625 28.152344 108.5625 C 29.5625 108.5625 30.703125 109.710938 30.703125 111.125 L 30.703125 113.6875 L 33.253906 113.6875 C 34.664062 113.6875 35.808594 114.832031 35.808594 116.246094 C 35.808594 117.660156 34.664062 118.808594 33.253906 118.808594 Z M 28.152344 103.4375 C 26.742188 103.4375 25.601562 102.292969 25.601562 100.878906 L 25.601562 90.628906 C 25.601562 89.214844 26.742188 88.070312 28.152344 88.070312 C 29.5625 88.070312 30.703125 89.214844 30.703125 90.628906 L 30.703125 100.878906 C 30.703125 102.292969 29.5625 103.4375 28.152344 103.4375 Z M 28.152344 82.945312 C 26.742188 82.945312 25.601562 81.796875 25.601562 80.382812 L 25.601562 70.136719 C 25.601562 68.722656 26.742188 67.574219 28.152344 67.574219 C 29.5625 67.574219 30.703125 68.722656 30.703125 70.136719 L 30.703125 80.382812 C 30.703125 81.796875 29.5625 82.945312 28.152344 82.945312 Z M 28.152344 82.945312 " fill-opacity="1" fill-rule="nonzero"/></g><g clip-path="url(#1ef2a73c1b)"><path fill="#000000" d="M 120.015625 62.449219 L 68.980469 62.449219 C 67.574219 62.449219 66.429688 61.304688 66.429688 59.890625 C 66.429688 58.476562 67.574219 57.328125 68.980469 57.328125 L 113.859375 57.328125 L 67.179688 10.46875 C 66.183594 9.46875 66.183594 7.84375 67.179688 6.847656 C 68.175781 5.847656 69.792969 5.847656 70.789062 6.847656 L 121.824219 58.082031 C 122.554688 58.8125 122.773438 59.914062 122.375 60.875 C 121.976562 61.832031 121.046875 62.449219 120.015625 62.449219 Z M 120.015625 62.449219 " fill-opacity="1" fill-rule="nonzero"/></g><g clip-path="url(#2ae2c3e209)"><path fill="#000000" d="M 65.371094 14.839844 C 64.71875 14.839844 64.066406 14.585938 63.566406 14.089844 C 62.570312 13.089844 62.570312 11.46875 63.566406 10.46875 L 67.175781 6.847656 C 68.167969 5.847656 69.789062 5.847656 70.78125 6.847656 C 71.777344 7.84375 71.777344 9.46875 70.78125 10.46875 L 67.175781 14.089844 C 66.679688 14.585938 66.027344 14.839844 65.371094 14.839844 Z M 65.371094 14.839844 " fill-opacity="1" fill-rule="nonzero"/></g><path fill="#000000" d="M 27.816406 52.542969 C 27.160156 52.542969 26.507812 52.292969 26.007812 51.792969 C 25.011719 50.796875 25.011719 49.171875 26.007812 48.171875 L 32.269531 41.886719 C 33.265625 40.886719 34.882812 40.886719 35.878906 41.886719 C 36.875 42.882812 36.875 44.507812 35.878906 45.507812 L 29.617188 51.792969 C 29.117188 52.296875 28.46875 52.542969 27.816406 52.542969 Z M 40.335938 39.972656 C 39.679688 39.972656 39.027344 39.722656 38.527344 39.226562 C 37.53125 38.226562 37.53125 36.601562 38.527344 35.605469 L 44.789062 29.316406 C 45.785156 28.320312 47.402344 28.320312 48.398438 29.316406 C 49.394531 30.316406 49.394531 31.941406 48.398438 32.941406 L 42.136719 39.226562 C 41.640625 39.722656 40.988281 39.972656 40.335938 39.972656 Z M 52.855469 27.40625 C 52.199219 27.40625 51.546875 27.15625 51.046875 26.660156 C 50.050781 25.660156 50.050781 24.035156 51.046875 23.035156 L 57.308594 16.75 C 58.304688 15.75 59.921875 15.75 60.917969 16.75 C 61.914062 17.75 61.914062 19.371094 60.917969 20.371094 L 54.65625 26.660156 C 54.160156 27.15625 53.507812 27.40625 52.855469 27.40625 Z M 52.855469 27.40625 " fill-opacity="1" fill-rule="nonzero"/><g clip-path="url(#47689d005c)"><path fill="#000000" d="M 23.046875 62.449219 L 17.945312 62.449219 C 16.914062 62.449219 15.980469 61.824219 15.585938 60.867188 C 15.195312 59.910156 15.414062 58.808594 16.136719 58.074219 L 19.746094 54.453125 C 20.742188 53.453125 22.359375 53.453125 23.355469 54.453125 C 24.160156 55.261719 24.3125 56.480469 23.820312 57.445312 C 24.855469 57.773438 25.601562 58.742188 25.601562 59.890625 C 25.601562 61.304688 24.457031 62.449219 23.046875 62.449219 Z M 23.046875 62.449219 " fill-opacity="1" fill-rule="nonzero"/></g><path fill="#000000" d="M 55.707031 62.449219 L 47.546875 62.449219 C 46.136719 62.449219 44.996094 61.304688 44.996094 59.890625 C 44.996094 58.476562 46.132812 57.328125 47.546875 57.328125 L 55.710938 57.328125 C 57.121094 57.328125 58.261719 58.476562 58.261719 59.890625 C 58.261719 61.304688 57.121094 62.449219 55.707031 62.449219 Z M 39.375 62.449219 L 31.214844 62.449219 C 29.804688 62.449219 28.664062 61.304688 28.664062 59.890625 C 28.664062 58.476562 29.800781 57.328125 31.214844 57.328125 L 39.378906 57.328125 C 40.789062 57.328125 41.933594 58.476562 41.933594 59.890625 C 41.933594 61.304688 40.789062 62.449219 39.375 62.449219 Z M 39.375 62.449219 " fill-opacity="1" fill-rule="nonzero"/><g clip-path="url(#12a0fb1332)"><path fill="#000000" d="M 68.980469 62.449219 L 63.878906 62.449219 C 62.46875 62.449219 61.324219 61.304688 61.324219 59.890625 C 61.324219 58.476562 62.46875 57.328125 63.878906 57.328125 L 68.980469 57.328125 C 70.390625 57.328125 71.53125 58.476562 71.53125 59.890625 C 71.53125 61.304688 70.390625 62.449219 68.980469 62.449219 Z M 68.980469 62.449219 " fill-opacity="1" fill-rule="nonzero"/></g><g clip-path="url(#6e2f9a492c)"><path fill="#000000" d="M 68.980469 123.933594 C 67.574219 123.933594 66.429688 122.785156 66.429688 121.371094 L 66.429688 3.53125 C 66.429688 2.117188 67.574219 0.96875 68.980469 0.96875 C 70.390625 0.96875 71.53125 2.117188 71.53125 3.53125 L 71.53125 121.371094 C 71.53125 122.785156 70.390625 123.933594 68.980469 123.933594 Z M 68.980469 123.933594 " fill-opacity="1" fill-rule="nonzero"/></g></svg>